<?xml version="1.0" encoding="utf-8"?>
<!-- Generator: Adobe Illustrator 28.1.0, SVG Export Plug-In . SVG Version: 6.00 Build 0)  -->
<svg version="1.1" id="Capa_1" xmlns="http://www.w3.org/2000/svg" xmlns:xlink="http://www.w3.org/1999/xlink" x="0px" y="0px"
	 viewBox="0 0 336.6 102.1" style="enable-background:new 0 0 336.6 102.1;" xml:space="preserve">
<path d="M179.4,36.5C179.3,36.5,179.3,36.5,179.4,36.5C179.4,36.5,179.4,36.5,179.4,36.5C179.4,36.5,179.4,36.5,179.4,36.5z
	 M168.2,53.1l-5.2-0.7c-5.8-0.7-8.4-2.5-8.4-5.7c0-3.9,3.9-6.4,9.8-6.4c4.1,0,8.2,1.1,11.3,2.5c0,0,0,0,0,0c0.1,0,0.1,0,0.2,0.1
	L176,43l0.2,0.1c1.4,0.6,3,0.2,4-0.9l0.3-0.5l0.1-0.3l0.1-0.3c0,0,0-0.1,0-0.1c0.8-1.8,0-3.8-1.7-4.7c0,0,0,0,0,0c0,0,0,0,0,0
	c0,0,0,0,0,0c0,0-0.1,0-0.1,0c-0.1,0-0.2-0.1-0.3-0.1l-0.6-0.3c0,0,0,0,0,0c-4-1.7-8.8-2.6-13.7-2.6c-11.2,0-18.1,5.3-18.1,13.9
	c0,7.1,5.2,11.5,15,12.7l5.2,0.6c5.8,0.7,8.8,2.7,8.8,5.9c0,4.2-4.2,6.6-11.6,6.6c-5,0-8.6-1-11.2-2.2v0l-0.9-0.4
	c-0.1,0-0.1-0.1-0.2-0.1c-0.1-0.1-0.3-0.1-0.4-0.2l-0.1-0.1l-0.2-0.1c-1.2-0.6-2.6-0.4-3.5,0.4c-0.1,0.1-0.2,0.2-0.4,0.3l-0.2,0.2
	l-0.2,0.3c0,0-0.1,0.1-0.1,0.1c0,0.1-0.1,0.1-0.1,0.2c0,0,0,0.1,0,0.1c0,0,0,0,0,0.1c0,0,0,0,0,0c-0.1,0.2-0.2,0.4-0.2,0.6
	c0,0.1,0,0.2,0,0.3c0,0.1,0,0.2-0.1,0.4c0,0.2,0,0.3,0,0.5c0,0.1,0,0.1,0,0.2c0,0.2,0.1,0.4,0.1,0.6c0,0,0,0,0,0
	c0.3,0.8,0.8,1.5,1.6,2c0,0,0,0,0,0c0,0,0,0,0.1,0c0,0,0.1,0,0.1,0.1c0,0,0.1,0,0.1,0l0.4,0.2c6.1,3.1,12.5,3.5,15.3,3.5
	c12.1,0,19.9-5.6,19.9-14.2C183.5,58.7,178.3,54.4,168.2,53.1z M175,42.5C175,42.5,175,42.5,175,42.5L175,42.5
	C175,42.5,175,42.5,175,42.5z"/>
<path d="M209.4,41.4c1.9,0,3.4-1.5,3.4-3.4c0,0,0-0.1,0-0.2c0-1.8-1.5-3.2-3.2-3.2h-0.2h-8.1l0-8c0-2.2-1.8-4-4-4c0,0-0.2,0-0.2,0
	c-2.1,0-3.8,1.7-3.8,3.8v0.2l0,47.2c0,3.4,1.7,5.1,5.3,5.1H209c1.9,0,3.4-1.5,3.4-3.4c0,0,0-0.1,0-0.2c0-1.8-1.5-3.2-3.2-3.2H209
	l-7.8,0V41.4L209.4,41.4z"/>
<path d="M292.8,33.3c-12,0.1-20.2,6.6-20.2,17.4V75c0,2.1,1.7,3.8,3.8,3.8c0,0,0.1,0,0.1,0c0,0,0.1,0,0.1,0c2.2,0,4-1.8,4-4l0-21.9
	c0-7.6,2.9-12.3,12.2-12.3c9.3,0.1,12.2,4.8,12.2,12.3l0,21.9c0,2.2,1.8,4,4,4c0,0,0.1,0,0.1,0c0,0,0.1,0,0.1,0
	c2.1,0,3.8-1.7,3.8-3.8V50.6C313,39.8,304.8,33.4,292.8,33.3z"/>
<path d="M259.4,59.2c1.8,0,3.2-1.5,3.3-3.3c0,0,0-0.2,0-0.2c-0.1-7.1-2-12.8-5.7-16.7c-3.6-3.8-8.6-5.7-15-5.7
	c-13.6,0-22.7,9.6-22.7,23.8c0,14,8.8,23,22.3,23c6.7,0,11.5-1.9,15-4.5l0,0c0,0,0.1-0.1,0.1-0.1c0.2-0.1,0.3-0.2,0.4-0.3
	c0.2-0.1,0.3-0.3,0.5-0.4c0.1,0,0.1-0.1,0.2-0.1c0.1-0.1,0.2-0.1,0.2-0.2l0.2-0.2c0.3-0.2,0.5-0.5,0.8-0.7l0.1-0.1c0,0,0,0,0.1-0.1
	c1.4-1.3,1.5-3.5,0.2-4.9c0,0-0.1-0.1-0.1-0.1c-0.1-0.1-0.2-0.2-0.3-0.3l-0.5-0.4c-1.2-0.7-2.8-0.6-3.9,0.4l-0.1,0.1l-0.1,0.1l0,0
	c-3.1,3-7.5,4.7-12.5,4.7c-7.5,0-12.6-4.3-14.1-11.6c-0.1-0.8-0.2-1.5-0.2-2.3L259.4,59.2z M237.4,52.7c-6.7,0-8.5,3-8.5,3h-1.6
	c0.1-2.6,0.4-4.5,0.8-5.9c1.8-6.4,6.5-10,13.6-10c8.2,0,12.4,4.2,12.8,12.8L237.4,52.7z"/>
<g>
	<path d="M49.2,23.1c0-2.2-1.8-4-4-4c0,0-0.2,0-0.2,0c-2.1,0-3.8,1.7-3.8,3.8v52h0c0.1,2.1,1.9,3.8,4,3.8c0,0,0.2,0,0.2,0
		c2.1,0,3.8-1.7,3.8-3.8h0L49.2,23.1z"/>
	<path d="M85,72.3L61.1,46.7l21.7-21.6c1.4-1.3,1.4-3.6,0-4.9c0,0-0.1-0.1-0.1-0.1c-1.3-1.3-3.4-1.3-4.7,0L51.6,46.5
		c0,0-0.1,0.1-0.1,0.1v1.2c0,0.1,0,0.1,0.1,0.1l28.2,30c1.5,1.1,3.6,1.1,5-0.2c0,0,0.1-0.1,0.1-0.1C86.4,76.2,86.3,73.8,85,72.3z"/>
</g>
<path d="M103.8,25.6h21.8c1.8,0,3.3-1.5,3.3-3.3v0c0-1.8-1.5-3.3-3.3-3.3h-21.8c-1.8,0-3.3,1.5-3.3,3.3v0
	C100.5,24.2,102,25.6,103.8,25.6z M132.1,39.7c-4.3-4.2-10.3-6.5-17.3-6.5c-14.4,0-24,9.6-24,23.8c0,14.2,9.1,23,23.7,23
	c14.1,0,24-9.9,24-24C138.5,49.6,136.2,43.8,132.1,39.7z M114.7,73c-9.8,0-15.5-6-15.5-16.4c0-9.9,6.1-16.3,15.5-16.3
	c9.4,0,15.5,6.1,15.5,15.6C130.2,66.4,124.2,73,114.7,73z"/>
</svg>
