<?xml version="1.0" encoding="utf-8"?>
<!-- Generator: Adobe Illustrator 25.2.3, SVG Export Plug-In . SVG Version: 6.00 Build 0)  -->
<svg version="1.1" id="Capa_1" xmlns="http://www.w3.org/2000/svg" xmlns:xlink="http://www.w3.org/1999/xlink" x="0px" y="0px"
	 viewBox="0 0 273.5 64.2" style="enable-background:new 0 0 273.5 64.2;" xml:space="preserve">
<style type="text/css">
	.st0{fill:#FFFFFF;}
</style>
<path class="st0" d="M139.1,19.1C139,19.1,139,19.1,139.1,19.1 M127.9,35.7l-5.2-0.7c-5.8-0.7-8.4-2.5-8.4-5.7
	c0-3.9,3.9-6.4,9.8-6.4c4.1,0,8.2,1.1,11.3,2.5c0.1,0,0.1,0,0.2,0.1l0.1,0.1l0.2,0.1c1.4,0.6,3,0.2,4-0.9l0.3-0.5l0.1-0.3l0.1-0.3
	v-0.1c0.8-1.7,0.1-3.5-1.4-4.5c-0.1-0.1-0.2-0.1-0.3-0.2h-0.1c-0.1,0-0.2-0.1-0.3-0.1l-0.6-0.3c-4-1.7-8.8-2.6-13.7-2.6
	c-11.2,0-18.1,5.3-18.1,13.9c0,7.1,5.2,11.5,15,12.7l5.2,0.6c5.8,0.7,8.8,2.7,8.8,5.9c0,4.2-4.2,6.6-11.6,6.6c-5,0-8.6-1-11.2-2.2
	l-0.9-0.4c-0.1,0-0.1-0.1-0.2-0.1c-0.1-0.1-0.3-0.1-0.4-0.2l-0.1-0.1l-0.2-0.1c-1.2-0.6-2.6-0.4-3.5,0.4c-0.1,0.1-0.2,0.2-0.4,0.3
	l-0.2,0.2l-0.2,0.3l-0.1,0.1c0,0.1-0.1,0.1-0.1,0.2v0.1c0,0,0,0,0,0.1c-0.1,0.2-0.2,0.4-0.2,0.6v0.3c0,0.1,0,0.2-0.1,0.4V56
	c0,0.1,0,0.1,0,0.2c0,0.2,0.1,0.4,0.1,0.6c0.3,0.8,0.8,1.5,1.6,2c0,0,0,0,0.1,0c0,0,0.1,0,0.1,0.1h0.1l0.4,0.2
	c6.1,3.1,12.5,3.5,15.3,3.5c12.1,0,19.9-5.6,19.9-14.2C143.2,41.3,138,37,127.9,35.7z M169.1,24c1.9,0,3.4-1.5,3.4-3.4
	c0,0,0-0.1,0-0.2c0-1.8-1.5-3.2-3.2-3.2H161v-8c0-2.2-1.8-4-4-4h-0.2c-2.1,0-3.8,1.7-3.8,3.8v47.4c0,3.4,1.7,5.1,5.3,5.1h10.4
	c1.9,0,3.4-1.5,3.4-3.4c0,0,0-0.1,0-0.2c0-1.8-1.5-3.2-3.2-3.2h-8V24H169.1z M252.5,15.9c-12,0.1-20.2,6.6-20.2,17.4v24.3
	c0,2.1,1.7,3.8,3.8,3.8h0.2c2.2,0,4-1.8,4-4V35.5c0-7.6,2.9-12.3,12.2-12.3c9.3,0.1,12.2,4.8,12.2,12.3v21.9c0,2.2,1.8,4,4,4h0.2
	c2.1,0,3.8-1.7,3.8-3.8V33.2C272.7,22.4,264.5,16,252.5,15.9z M216.7,21.6c-3.6-3.8-8.6-5.7-15-5.7c-13.6,0-22.7,9.6-22.7,23.8
	c0,14,8.8,23,22.3,23c6.7,0,11.5-1.9,15-4.5l0.1-0.1c0.2-0.1,0.3-0.2,0.4-0.3c0.2-0.1,0.3-0.3,0.5-0.4c0.1,0,0.1-0.1,0.2-0.1
	c0.1-0.1,0.2-0.1,0.2-0.2l0.2-0.2c0.3-0.2,0.5-0.5,0.8-0.7l0.1-0.1c0,0,0,0,0.1-0.1c1.4-1.3,1.5-3.5,0.2-4.9l-0.4-0.4l-0.5-0.4
	c-1.2-0.7-2.8-0.6-3.9,0.4l-0.1,0.1l-0.1,0.1c-3.1,3-7.5,4.7-12.5,4.7c-7.5,0-12.6-4.3-14.1-11.6c-0.1-0.8-0.2-1.5-0.2-2.3l31.8,0.1
	c1.8,0,3.2-1.5,3.3-3.3v-0.2C222.3,31.2,220.4,25.5,216.7,21.6z M197.1,35.3c-6.7,0-8.5,3-8.5,3H187c0.1-2.6,0.4-4.5,0.8-5.9
	c1.8-6.4,6.5-10,13.6-10c8.2,0,12.4,4.2,12.8,12.8L197.1,35.3z M4.9,1.7H4.7c-2.1,0-3.8,1.7-3.8,3.8v52c0.1,2.1,1.9,3.8,4,3.8h0.2
	c2.1,0,3.8-1.7,3.8-3.8V5.7C8.9,3.5,7.1,1.7,4.9,1.7z M44.7,54.9L20.8,29.3L42.5,7.7c1.4-1.3,1.4-3.6,0-4.9l-0.1-0.1
	c-1.3-1.3-3.4-1.3-4.7,0L11.2,29.2v1.2c0,0.1,0,0.1,0.1,0.1l28.2,30c1.5,1.1,3.6,1.1,5-0.2l0.1-0.1C46.1,58.8,46,56.4,44.7,54.9z
	 M91.8,22.3c-4.3-4.2-10.3-6.5-17.3-6.5c-14.4,0-24,9.6-24,23.8c0,14.2,9.1,23,23.7,23c14.1,0,24-9.9,24-24
	C98.2,32.2,95.9,26.4,91.8,22.3z M74.4,55.6c-9.8,0-15.5-6-15.5-16.4c0-9.9,6.1-16.3,15.5-16.3c9.4,0,15.5,6.1,15.5,15.6
	C89.9,49,83.9,55.6,74.4,55.6z M85.3,1.6H63.5c-1.8,0-3.3,1.5-3.3,3.3c0,1.9,1.5,3.3,3.3,3.3h21.8c1.8,0,3.3-1.5,3.3-3.3
	S87.1,1.6,85.3,1.6z"/>
</svg>
